<svg width="25" height="15" viewBox="0 0 25 15" fill="none" xmlns="http://www.w3.org/2000/svg">
<path d="M14.0016 11.9656H1.57489C1.19381 11.9656 0.884521 12.4845 0.884521 13.1239C0.884521 13.7633 1.19381 14.2822 1.57489 14.2822H14.0016C14.3827 14.2822 14.6919 13.7633 14.6919 13.1239C14.6919 12.4845 14.3827 11.9656 14.0016 11.9656Z" fill="#FC5285"/>
<path d="M18.2272 6.29356H1.79729C1.29344 6.29356 0.884521 6.8125 0.884521 7.4519C0.884521 8.0913 1.29344 8.61023 1.79729 8.61023H18.2272C18.731 8.61023 19.1399 8.0913 19.1399 7.4519C19.1399 6.8125 18.731 6.29356 18.2272 6.29356Z" fill="#FC5285"/>
<path d="M22.8929 0.714214H2.04285C1.40345 0.714214 0.884521 1.23315 0.884521 1.87255C0.884521 2.51195 1.40345 3.03088 2.04285 3.03088H22.8929C23.5323 3.03088 24.0512 2.51195 24.0512 1.87255C24.0512 1.23315 23.5323 0.714214 22.8929 0.714214Z" fill="#FC5285"/>
</svg>
