<svg width="23" height="24" viewBox="0 0 23 24" fill="none" xmlns="http://www.w3.org/2000/svg">
<path d="M10.8845 23.7142C12.2642 23.7142 13.3834 22.595 13.3834 21.2142H8.38572C8.38572 22.595 9.50486 23.7142 10.8845 23.7142ZM19.2982 17.8661C18.5435 17.0552 17.1314 15.8353 17.1314 11.8392C17.1314 8.80402 15.0033 6.37433 12.1338 5.77823V4.96417C12.1338 4.27394 11.5744 3.71417 10.8845 3.71417C10.1947 3.71417 9.63533 4.27394 9.63533 4.96417V5.77823C6.7658 6.37433 4.63767 8.80402 4.63767 11.8392C4.63767 15.8353 3.22556 17.0552 2.47088 17.8661C2.2365 18.1181 2.1326 18.4193 2.13455 18.7142C2.13885 19.3548 2.64158 19.9642 3.38845 19.9642H18.3806C19.1275 19.9642 19.6306 19.3548 19.6345 18.7142C19.6365 18.4193 19.5326 18.1177 19.2982 17.8661Z" fill="#C5C7CD"/>
<circle cx="17.1345" cy="6.21417" r="4.5" fill="#FC5285" stroke="#F7F8FC" stroke-width="1.5"/>
</svg>
