<svg width="211" height="213" viewBox="0 0 211 213" fill="none" xmlns="http://www.w3.org/2000/svg">
<g clip-path="url(#clip0_1519_7897)">
<path d="M109.702 43.0972C121.478 43.8748 132.803 47.9496 142.395 54.8608C151.988 61.772 159.464 71.2437 163.98 82.2044C168.496 93.1651 169.87 105.177 167.947 116.882C166.024 128.587 160.882 139.518 153.1 148.437L182.971 178.465C196.651 163.596 205.806 145.098 209.351 125.161C212.896 105.224 210.682 84.6836 202.972 65.9722C195.263 47.2607 182.38 31.1624 165.849 19.5839C149.319 8.00546 129.834 1.43191 109.702 0.641846V43.0972Z" fill="url(#paint0_linear_1519_7897)"/>
<path d="M147.132 154.439C139.568 161.091 130.536 165.837 120.785 168.283C111.033 170.729 100.842 170.804 91.0558 168.503C81.2695 166.202 72.1691 161.591 64.5082 155.051C56.8472 148.512 50.8461 140.232 47.0017 130.897C43.1574 121.562 41.5803 111.441 42.4011 101.372C43.2218 91.3021 46.4169 81.574 51.7217 72.9928C57.0264 64.4115 64.2883 57.224 72.9061 52.0252C81.5238 46.8264 91.2496 43.7659 101.278 43.0972V0.641846C84.2917 1.3077 67.717 6.09029 52.9654 14.5824C38.2138 23.0744 25.7223 35.0244 16.5545 49.4148C7.38679 63.8051 1.81439 80.2095 0.311867 97.231C-1.19066 114.252 1.42119 131.387 7.925 147.175C14.4288 162.963 24.6319 176.938 37.6655 187.908C50.6991 198.879 66.177 206.521 82.7813 210.183C99.3856 213.845 116.624 213.419 133.03 208.941C149.435 204.464 164.521 196.067 177.003 184.466L147.132 154.439Z" fill="url(#paint1_linear_1519_7897)"/>
<path d="M97.316 110.832V102.318C97.316 101.514 97.37 100.626 97.478 99.6538L89.396 110.832H97.316ZM104.462 110.832V113.406C104.462 113.646 104.384 113.856 104.228 114.036C104.072 114.204 103.85 114.288 103.562 114.288H101.186V120.642H97.316V114.288H86.336C86.036 114.288 85.772 114.198 85.544 114.018C85.316 113.826 85.172 113.592 85.112 113.316L84.644 111.066L96.974 94.5958H101.186V110.832H104.462ZM112.691 104.064C113.267 103.944 113.819 103.86 114.347 103.812C114.875 103.752 115.385 103.722 115.877 103.722C117.245 103.722 118.451 103.926 119.495 104.334C120.539 104.742 121.415 105.306 122.123 106.026C122.831 106.746 123.365 107.592 123.725 108.564C124.085 109.524 124.265 110.562 124.265 111.678C124.265 113.058 124.019 114.318 123.527 115.458C123.047 116.598 122.375 117.576 121.511 118.392C120.647 119.196 119.621 119.82 118.433 120.264C117.257 120.708 115.973 120.93 114.581 120.93C113.765 120.93 112.991 120.846 112.259 120.678C111.527 120.51 110.837 120.288 110.189 120.012C109.553 119.724 108.959 119.4 108.407 119.04C107.867 118.668 107.381 118.278 106.949 117.87L108.317 115.98C108.605 115.572 108.983 115.368 109.451 115.368C109.751 115.368 110.057 115.464 110.369 115.656C110.681 115.848 111.035 116.058 111.431 116.286C111.839 116.514 112.313 116.724 112.853 116.916C113.405 117.108 114.065 117.204 114.833 117.204C115.649 117.204 116.369 117.072 116.993 116.808C117.617 116.544 118.133 116.178 118.541 115.71C118.961 115.23 119.273 114.666 119.477 114.018C119.693 113.358 119.801 112.644 119.801 111.876C119.801 110.46 119.387 109.356 118.559 108.564C117.743 107.76 116.531 107.358 114.923 107.358C113.687 107.358 112.421 107.586 111.125 108.042L108.353 107.25L110.513 94.6138H123.365V96.5038C123.365 97.1398 123.167 97.6558 122.771 98.0518C122.375 98.4478 121.703 98.6458 120.755 98.6458H113.609L112.691 104.064Z" fill="#393766"/>
</g>
<defs>
<linearGradient id="paint0_linear_1519_7897" x1="141.88" y1="-1.55008" x2="192.139" y2="185.356" gradientUnits="userSpaceOnUse">
<stop stop-color="#FFE274"/>
<stop offset="1" stop-color="#FFDB54"/>
</linearGradient>
<linearGradient id="paint1_linear_1519_7897" x1="45.1567" y1="16.1769" x2="100.852" y2="191.087" gradientUnits="userSpaceOnUse">
<stop stop-color="#FF729C"/>
<stop offset="1" stop-color="#FC5285"/>
</linearGradient>
<clipPath id="clip0_1519_7897">
<rect width="211" height="212" fill="white" transform="translate(0 0.641846)"/>
</clipPath>
</defs>
</svg>
