<svg width="120" height="120" viewBox="0 0 120 120" fill="none" xmlns="http://www.w3.org/2000/svg">
<g clip-path="url(#clip0_2381_14956)">
<path d="M62.7725 24.5452C69.414 24.9817 75.801 27.269 81.2108 31.1484C86.6206 35.0278 90.8374 40.3445 93.3841 46.4969C95.9308 52.6494 96.7058 59.3921 95.6215 65.9624C94.5371 72.5326 91.6367 78.6682 87.2482 83.6749L104.095 100.53C111.81 92.184 116.973 81.8006 118.972 70.6095C120.972 59.4184 119.723 47.8886 115.375 37.3854C111.027 26.8823 103.761 17.846 94.4385 11.3468C85.1157 4.84752 74.1265 1.15765 62.7725 0.714172V24.5452Z" fill="url(#paint0_linear_2381_14956)"/>
<path d="M83.882 87.0435C79.616 90.7778 74.5223 93.4416 69.0226 94.8145C63.523 96.1873 57.7755 96.2298 52.2562 94.9382C46.7369 93.6467 41.6044 91.0584 37.2838 87.3875C32.9632 83.7167 29.5787 79.0689 27.4105 73.8291C25.2424 68.5892 24.3529 62.908 24.8158 57.2558C25.2787 51.6036 27.0807 46.1431 30.0725 41.3263C33.0643 36.5094 37.1598 32.4749 42.0201 29.5567C46.8803 26.6385 52.3655 24.9206 58.0213 24.5452V0.714172C48.4413 1.08793 39.0935 3.7725 30.7739 8.53928C22.4543 13.3061 15.4093 20.0138 10.2389 28.0914C5.06845 36.169 1.92572 45.3771 1.07832 54.9317C0.230926 64.4862 1.70396 74.1041 5.37199 82.9663C9.04002 91.8286 14.7944 99.6727 22.1451 105.831C29.4958 111.989 38.225 116.278 47.5895 118.334C56.954 120.389 66.6764 120.15 75.9287 117.637C85.1809 115.124 93.6891 110.41 100.729 103.898L83.882 87.0435Z" fill="url(#paint1_linear_2381_14956)"/>
<path d="M53.0826 64.0405V56.9455C53.0826 56.2755 53.1276 55.5355 53.2176 54.7255L46.4826 64.0405H53.0826ZM59.0376 64.0405V66.1855C59.0376 66.3855 58.9726 66.5605 58.8426 66.7105C58.7126 66.8505 58.5276 66.9205 58.2876 66.9205H56.3076V72.2155H53.0826V66.9205H43.9326C43.6826 66.9205 43.4626 66.8455 43.2726 66.6955C43.0826 66.5355 42.9626 66.3405 42.9126 66.1105L42.5226 64.2355L52.7976 50.5105H56.3076V64.0405H59.0376ZM66.0949 58.4005C66.5749 58.3005 67.0349 58.2305 67.4749 58.1905C67.9149 58.1405 68.3399 58.1155 68.7499 58.1155C69.8899 58.1155 70.8949 58.2855 71.7649 58.6255C72.6349 58.9655 73.3649 59.4355 73.9549 60.0355C74.5449 60.6355 74.9899 61.3405 75.2899 62.1505C75.5899 62.9505 75.7399 63.8155 75.7399 64.7455C75.7399 65.8955 75.5349 66.9455 75.1249 67.8955C74.7249 68.8455 74.1649 69.6605 73.4449 70.3405C72.7249 71.0105 71.8699 71.5305 70.8799 71.9005C69.8999 72.2705 68.8299 72.4555 67.6699 72.4555C66.9899 72.4555 66.3449 72.3855 65.7349 72.2455C65.1249 72.1055 64.5499 71.9205 64.0099 71.6905C63.4799 71.4505 62.9849 71.1805 62.5249 70.8805C62.0749 70.5705 61.6699 70.2455 61.3099 69.9055L62.4499 68.3305C62.6899 67.9905 63.0049 67.8205 63.3949 67.8205C63.6449 67.8205 63.8999 67.9005 64.1599 68.0605C64.4199 68.2205 64.7149 68.3955 65.0449 68.5855C65.3849 68.7755 65.7799 68.9505 66.2299 69.1105C66.6899 69.2705 67.2399 69.3505 67.8799 69.3505C68.5599 69.3505 69.1599 69.2405 69.6799 69.0205C70.1999 68.8005 70.6299 68.4955 70.9699 68.1055C71.3199 67.7055 71.5799 67.2355 71.7499 66.6955C71.9299 66.1455 72.0199 65.5505 72.0199 64.9105C72.0199 63.7305 71.6749 62.8105 70.9849 62.1505C70.3049 61.4805 69.2949 61.1455 67.9549 61.1455C66.9249 61.1455 65.8699 61.3355 64.7899 61.7155L62.4799 61.0555L64.2799 50.5255H74.9899V52.1005C74.9899 52.6305 74.8249 53.0605 74.4949 53.3905C74.1649 53.7205 73.6049 53.8855 72.8149 53.8855H66.8599L66.0949 58.4005Z" fill="#393766"/>
</g>
<defs>
<linearGradient id="paint0_linear_2381_14956" x1="80.9203" y1="-0.516203" x2="109.016" y2="104.465" gradientUnits="userSpaceOnUse">
<stop stop-color="#FFE274"/>
<stop offset="1" stop-color="#FFDB54"/>
</linearGradient>
<linearGradient id="paint1_linear_2381_14956" x1="26.37" y1="9.43431" x2="57.5124" y2="107.7" gradientUnits="userSpaceOnUse">
<stop stop-color="#FF729C"/>
<stop offset="1" stop-color="#FC5285"/>
</linearGradient>
<clipPath id="clip0_2381_14956">
<rect width="119" height="119" fill="white" transform="translate(0.902588 0.714172)"/>
</clipPath>
</defs>
</svg>
