<svg width="33" height="33" viewBox="0 0 33 33" fill="none" xmlns="http://www.w3.org/2000/svg">
<path d="M25.6587 9.48837C22.8128 9.48837 20.4974 7.17301 20.4974 4.32708V0.714172H13.2716V4.32708C13.2716 7.17301 10.9563 9.48837 8.11033 9.48837C4.12581 9.48837 0.884521 12.7297 0.884521 16.7142C0.884521 25.5369 8.06181 32.7142 16.8845 32.7142C25.7072 32.7142 32.8845 25.5369 32.8845 16.7142C32.8845 12.7297 29.6432 9.48837 25.6587 9.48837ZM16.8845 31.6819C8.63162 31.6819 1.91678 24.9671 1.91678 16.7142C1.91678 13.2989 4.6951 10.5206 8.11033 10.5206C11.5256 10.5206 14.3039 7.7423 14.3039 4.32708V1.74643H15.3361V2.77869H16.3684V1.74643H17.4007V7.4672C17.4007 8.39572 17.2154 9.29946 16.8499 10.1521L16.4871 10.9986C16.0659 11.9808 15.8523 13.0213 15.8523 14.0902C15.8523 15.06 16.0954 16.0024 16.5552 16.8458C16.1852 16.9537 15.8425 17.1317 15.5379 17.3764L15.4827 17.2375C15.043 16.1387 14.82 14.9826 14.82 13.8001C14.82 12.7472 15.0688 11.6928 15.54 10.7513C16.0814 9.66746 16.3684 8.45301 16.3684 7.24114V3.81095H15.3361V7.24114C15.3361 8.29404 15.0874 9.34849 14.6161 10.2899C14.0747 11.3738 13.7877 12.5882 13.7877 13.8001C13.7877 15.1142 14.035 16.3993 14.5237 17.62L14.6497 17.9348C14.0701 17.1735 13.1746 16.7142 12.1914 16.7142C11.8192 16.7142 11.4533 16.7808 11.1034 16.9113L7.79652 18.1516L7.1911 17.2437C6.9702 16.9124 6.60065 16.7142 6.2022 16.7142C5.54672 16.7142 5.01355 17.2473 5.01355 17.9028V19.8109C5.01355 20.6646 5.70826 21.3593 6.56194 21.3593V22.3916C6.56194 22.9609 7.02491 23.4238 7.5942 23.4238H8.37149C9.41252 24.7565 10.6853 25.8584 12.1594 26.7008L12.837 27.0878C13.6866 27.702 14.7261 28.069 15.8523 28.069C17.971 28.069 20.0525 27.4925 21.8698 26.4024L24.3607 24.9077C24.6182 24.9475 24.8794 24.9722 25.1426 24.9722C27.9885 24.9722 30.3039 22.6569 30.3039 19.8109C30.3039 16.965 27.9885 14.6497 25.1426 14.6497C23.9926 14.6497 22.8794 15.0357 21.9736 15.7428C21.8259 15.702 21.6778 15.6819 21.5297 15.6819C20.6435 15.6819 19.8631 16.357 19.3888 17.4977C18.9305 17.078 18.3436 16.8091 17.6959 16.742L17.6809 16.7198C17.1596 15.9389 16.8845 15.0295 16.8845 14.0902C16.8845 13.1617 17.0698 12.2579 17.4352 11.4053L17.7981 10.5588C18.2192 9.57662 18.4329 8.53611 18.4329 7.4672V1.74643H19.4652V4.32708C19.4652 7.7423 22.2435 10.5206 25.6587 10.5206C29.0739 10.5206 31.8523 13.2989 31.8523 16.7142C31.8523 24.9671 25.1374 31.6819 16.8845 31.6819ZM21.1493 20.4855C20.7075 20.1913 20.404 19.7217 20.3163 19.1973C20.2796 18.9753 20.2115 18.7673 20.1305 18.5671L20.1619 18.3978C20.4355 17.3908 20.9852 16.7142 21.5297 16.7142C21.6324 16.7142 21.7377 16.741 21.8517 16.7952L22.1599 16.9423L22.4164 16.7162C23.1725 16.0494 24.1408 15.6819 25.1426 15.6819C27.4192 15.6819 29.2716 17.5343 29.2716 19.8109C29.2716 22.0876 27.4192 23.94 25.1426 23.94C24.1408 23.94 23.1725 23.5725 22.4164 22.9051L21.733 23.6793C22.1217 24.022 22.5573 24.2977 23.0203 24.5082L21.3387 25.5173C19.6814 26.5108 17.7841 27.0368 15.8523 27.0368C13.5756 27.0368 11.7232 25.1844 11.7232 22.9077C11.7232 22.4633 11.9142 22.0401 12.2476 21.7464L11.5653 20.9722C11.4332 21.0889 11.3155 21.2184 11.2112 21.3568C10.6936 20.7209 9.9142 20.3271 9.05897 20.3271H6.56194C6.27704 20.3271 6.04581 20.0958 6.04581 19.8109V17.9028C6.04581 17.764 6.25484 17.7 6.33226 17.8161L7.39239 19.4058L11.4662 17.878C11.699 17.7908 11.9436 17.7464 12.1914 17.7464C12.979 17.7464 13.6871 18.1846 14.0396 18.8891C14.6425 20.0943 15.8543 20.8432 17.2019 20.8432H17.9168V19.8109H17.2019C16.4783 19.8109 15.811 19.5049 15.3439 18.9846L16.0138 18.3147C16.3803 17.9482 16.867 17.7464 17.3852 17.7464C18.3369 17.7464 19.1416 18.4277 19.2979 19.3671C19.4326 20.1717 19.8982 20.8922 20.5769 21.3444L21.2437 21.7888L21.8161 20.9299L21.1493 20.4855ZM10.9924 24.6285C10.2688 24.0308 9.60968 23.3588 9.03936 22.598L8.88452 22.3916H7.5942V21.3593H9.05897C9.81252 21.3593 10.4788 21.8399 10.7178 22.5547H10.7183C10.7023 22.6713 10.691 22.7885 10.691 22.9077C10.691 23.5116 10.8009 24.0891 10.9924 24.6285Z" fill="#FC5285"/>
</svg>
