<svg width="32" height="32" viewBox="0 0 32 32" fill="none" xmlns="http://www.w3.org/2000/svg">
<g clip-path="url(#clip0_2381_14901)">
<path d="M21.8128 15.2938C21.8106 15.2938 21.8085 15.2938 21.8064 15.2938H19.2103V12.6913C19.2138 12.1664 18.7911 11.738 18.2663 11.7345C18.2641 11.7345 18.262 11.7345 18.2599 11.7345H14.5093C13.9844 11.7345 13.5589 12.16 13.5589 12.6849V15.2874H10.9628C10.4379 15.2839 10.0095 15.7065 10.006 16.2313C10.006 16.2356 10.006 16.2399 10.006 16.2442V19.9884C10.006 20.5133 10.4315 20.9388 10.9564 20.9388H13.5589V23.5349C13.5554 24.0598 13.978 24.4882 14.5029 24.4917C14.505 24.4917 14.5072 24.4917 14.5093 24.4917H18.2535C18.7784 24.4917 19.2039 24.0662 19.2039 23.5413V20.9388H21.8064C22.3313 20.9423 22.7597 20.5197 22.7632 19.9948C22.7632 19.9926 22.7632 19.9905 22.7632 19.9884V16.2442C22.7632 15.7193 22.3377 15.2938 21.8128 15.2938ZM21.4875 19.6631H18.5724C18.2202 19.6631 17.9346 19.9487 17.9346 20.301V23.216H14.8346V20.301C14.8346 19.9487 14.549 19.6631 14.1967 19.6631H11.2817V16.5695H14.1967C14.549 16.5695 14.8346 16.2839 14.8346 15.9316V13.0102H17.9282V15.9252C17.9282 16.2775 18.2138 16.5631 18.5661 16.5631H21.4875V19.6631Z" fill="#FC5285"/>
<path d="M27.4833 6.96329H22.2273V4.71802C22.2604 3.69346 21.4566 2.83601 20.4321 2.80293C20.3798 2.80125 20.3276 2.80173 20.2755 2.80444H12.4936C11.4698 2.7511 10.5967 3.53774 10.5432 4.56143C10.5405 4.61357 10.54 4.6658 10.5417 4.71802V6.95053H5.28576C3.25736 6.95053 0.884521 8.10506 0.884521 11.3518V25.2252C0.884521 28.4719 3.25736 29.6265 5.28576 29.6265H27.4833C29.5117 29.6265 31.8845 28.4719 31.8845 25.2252V11.3645C31.8845 8.11781 29.5181 6.96329 27.4833 6.96329ZM11.8174 4.71802C11.8174 4.53304 11.8174 4.03551 12.5 4.03551H20.2755C20.958 4.03551 20.958 4.52666 20.958 4.71802V6.95053H11.8174V4.71802ZM30.6088 25.2252C30.6088 28.0446 28.4273 28.3507 27.4833 28.3507H5.28576C4.3481 28.3507 2.16024 28.0446 2.16024 25.2252V11.3645C2.16024 8.54518 4.34172 8.23901 5.28576 8.23901H27.4833C28.4209 8.23901 30.6088 8.54518 30.6088 11.3645V25.2252V25.2252Z" fill="#FC5285"/>
</g>
<defs>
<clipPath id="clip0_2381_14901">
<rect width="31" height="31" fill="white" transform="translate(0.884521 0.714172)"/>
</clipPath>
</defs>
</svg>
