<svg width="12" height="17" viewBox="0 0 12 17" fill="none" xmlns="http://www.w3.org/2000/svg">
<path d="M10.7864 1.36171C10.0613 0.926648 9.28831 0.715149 8.42319 0.715149C7.3881 0.715149 6.3721 1.01993 5.38957 1.31468C4.42967 1.60261 3.52305 1.87458 2.62568 1.87467C2.62556 1.87467 2.62543 1.87467 2.62531 1.87467C2.02537 1.87467 1.48209 1.74768 0.972408 1.48771V1.1839C0.972408 0.925023 0.762534 0.715149 0.50366 0.715149C0.244786 0.715149 0.0349121 0.925023 0.0349121 1.1839V1.76364V8.13536V16.2463C0.0349121 16.5052 0.244786 16.7151 0.50366 16.7151C0.762534 16.7151 0.972408 16.5052 0.972408 16.2463V8.88552C1.49012 9.08552 2.03653 9.18386 2.62568 9.18386C3.66071 9.18386 4.67664 8.87908 5.6591 8.58433C6.61907 8.29636 7.52572 8.02436 8.42319 8.02436C9.11356 8.02436 9.72877 8.19214 10.3041 8.5373C10.4488 8.62417 10.6292 8.62649 10.7762 8.54327C10.9231 8.46008 11.014 8.30424 11.014 8.13536V1.76364C11.014 1.59899 10.9275 1.4464 10.7864 1.36171Z" fill="#BEC5D3"/>
</svg>
