<svg width="24" height="32" viewBox="0 0 24 32" fill="none" xmlns="http://www.w3.org/2000/svg">
<path d="M0.704504 22.8277C0.962379 22.805 1.15294 22.5774 1.13019 22.3196C0.882691 19.5186 1.22263 17.0384 2.14063 14.9481C2.24256 14.7159 2.36456 14.4581 2.50581 14.1596C3.15287 12.7921 4.13062 10.7257 4.71043 7.78033C5.18087 5.39065 5.29343 2.91503 5.04493 0.422347C5.01925 0.16466 4.78906 -0.0236524 4.532 0.00241001C4.27437 0.0280975 4.08637 0.257722 4.11206 0.515347C4.35143 2.91647 4.24331 5.29984 3.79062 7.59921C3.23325 10.4301 2.2855 12.4332 1.65838 13.7586C1.51406 14.0636 1.3895 14.3269 1.28219 14.5711C0.30013 16.8075 -0.0652448 19.4423 0.196317 22.4021C0.21788 22.6459 0.422442 22.8296 0.662691 22.8296C0.676504 22.8296 0.690442 22.8289 0.704504 22.8277V22.8277ZM23.0613 27.1871L19.8913 24.0171C20.4578 20.3794 20.1602 17.2023 19.0046 14.5711C18.8973 14.3268 18.7728 14.0634 18.6285 13.7585C18.0015 12.4331 17.054 10.4301 16.4965 7.59952C16.0437 5.29978 15.9354 2.91634 16.1749 0.515347C16.2006 0.257785 16.0126 0.0280975 15.755 0.00241001C15.4973 -0.0236524 15.2677 0.164722 15.242 0.422347C14.9934 2.9149 15.106 5.39059 15.5767 7.78065C16.1566 10.7256 17.1342 12.792 17.781 14.1594C17.9223 14.4579 18.0442 14.7158 18.1462 14.9479C19.1567 17.2488 19.4634 20.0174 19.0618 23.1881C18.7081 22.8395 18.1367 22.8406 17.7848 23.1924L17.7627 23.2145L16.1014 21.5532C16.4435 20.7727 16.6338 19.9111 16.6338 19.0058C16.6338 17.7091 16.2464 16.4614 15.5133 15.3974C15.3664 15.1842 15.0745 15.1304 14.8614 15.2774C14.6482 15.4243 14.5944 15.7162 14.7413 15.9293C15.366 16.8362 15.6963 17.8999 15.6963 19.0058C15.6963 21.9996 13.2607 24.4353 10.2669 24.4353C7.27305 24.4353 4.8375 21.9996 4.8375 19.0057C4.8375 16.0118 7.27318 13.5763 10.267 13.5763C11.3584 13.5763 12.4107 13.8986 13.3101 14.5085C13.5244 14.6539 13.8159 14.5979 13.9611 14.3836C14.1064 14.1694 14.0505 13.8779 13.8362 13.7326C12.781 13.017 11.5467 12.6388 10.267 12.6388C6.75618 12.6388 3.9 15.4949 3.9 19.0057C3.9 22.3168 6.44062 25.0452 9.67474 25.3449V31.5312C9.67474 31.7902 9.88455 32 10.1435 32C10.4024 32 10.6122 31.7902 10.6122 31.5312V25.3624C11.7169 25.303 12.7477 24.9614 13.6331 24.4077L15.1013 25.8759L15.0792 25.8979C14.726 26.2513 14.726 26.8262 15.0793 27.1795L17.4947 29.595C17.2948 30.1735 17.0773 30.7655 16.8444 31.3605C16.75 31.6015 16.869 31.8735 17.1101 31.9679C17.3455 32.06 17.622 31.946 17.7175 31.7022C17.8977 31.2419 18.0685 30.7832 18.2301 30.3304L19.074 31.1744C20.1733 32.2736 21.962 32.2737 23.0612 31.1744C24.1605 30.075 24.1605 28.2864 23.0613 27.1871V27.1871ZM14.3979 23.8465C14.8792 23.4352 15.2987 22.9537 15.6402 22.4178L17.0998 23.8774L16.5274 24.4497L15.7641 25.2128L14.3979 23.8465ZM22.3983 30.5113C21.6739 31.2356 20.4517 31.2332 19.737 30.5113L15.7644 26.5387L18.4257 23.8773L22.3983 27.85C23.132 28.5837 23.132 29.7776 22.3983 30.5113V30.5113ZM1.41706 24.4472C1.3715 24.1924 1.12844 24.0224 0.873191 24.0682C0.618379 24.1138 0.448692 24.3572 0.494254 24.6121C0.883691 26.7921 1.58181 29.1774 2.56938 31.702C2.66475 31.9459 2.94062 32.0601 3.17669 31.9678C3.41775 31.8735 3.53675 31.6017 3.44244 31.3605C2.47719 28.8929 1.79581 26.5669 1.41706 24.4472V24.4472ZM11.3565 17.5649L9.3373 19.5841L8.82624 19.073C8.64311 18.89 8.34636 18.89 8.1633 19.073C7.98024 19.2561 7.98024 19.5529 8.1633 19.7359L8.8048 20.3774C9.09849 20.671 9.57611 20.6709 9.86992 20.3774L12.0195 18.2279C12.2025 18.0448 12.2025 17.748 12.0195 17.5649C11.8364 17.3819 11.5396 17.3819 11.3565 17.5649V17.5649ZM10.267 14.9373C8.02355 14.9373 6.19843 16.7624 6.19843 19.0058C6.19843 21.2492 8.02355 23.0743 10.267 23.0743C12.5104 23.0743 14.3355 21.2492 14.3355 19.0058C14.3354 16.7624 12.5103 14.9373 10.267 14.9373V14.9373ZM10.267 22.1367C8.54055 22.1367 7.13593 20.7321 7.13593 19.0057C7.13593 17.2793 8.54055 15.8747 10.267 15.8747C11.9934 15.8747 13.398 17.2793 13.398 19.0057C13.398 20.7321 11.9934 22.1367 10.267 22.1367V22.1367Z" fill="#FC5285"/>
</svg>
