<svg width="17" height="17" viewBox="0 0 17 17" fill="none" xmlns="http://www.w3.org/2000/svg">
<g clip-path="url(#clip0_3197_3768)">
<path d="M2.97977 6.5387H1.35327C1.0944 6.5387 0.884521 6.74857 0.884521 7.00745V16.7139H2.97977V6.5387Z" fill="#C9C9C9"/>
<path d="M16.4157 6.5387H14.7892V16.7139H16.8844V7.00745C16.8844 6.74857 16.6746 6.5387 16.4157 6.5387Z" fill="#C9C9C9"/>
<path d="M9.69971 13.5816V16.7137H8.06946V13.5816H9.69971Z" fill="#C9C9C9"/>
<path d="M13.3831 2.63948H11.9074V1.18292C11.9074 0.924047 11.6975 0.714172 11.4386 0.714172H6.39698C6.13811 0.714172 5.92823 0.924047 5.92823 1.18292V2.63948H4.38611C4.12723 2.63948 3.91736 2.84936 3.91736 3.10823V16.7142H7.13198V13.1133C7.13198 12.8544 7.34186 12.6445 7.60073 12.6445H10.1685C10.4274 12.6445 10.6372 12.8544 10.6372 13.1133V16.7142H13.8519V3.10823C13.8519 2.84936 13.642 2.63948 13.3831 2.63948ZM6.76201 11.0246H6.2572C5.99833 11.0246 5.78845 10.8148 5.78845 10.5559C5.78845 10.297 5.99833 10.0871 6.2572 10.0871H6.76201C7.02089 10.0871 7.23076 10.297 7.23076 10.5559C7.23076 10.8148 7.02089 11.0246 6.76201 11.0246ZM6.76201 9.14964H6.2572C5.99833 9.14964 5.78845 8.93977 5.78845 8.68089C5.78845 8.42202 5.99833 8.21214 6.2572 8.21214H6.76201C7.02089 8.21214 7.23076 8.42202 7.23076 8.68089C7.23076 8.93977 7.02089 9.14964 6.76201 9.14964ZM6.76201 7.27464H6.2572C5.99833 7.27464 5.78845 7.06477 5.78845 6.80589C5.78845 6.54702 5.99833 6.33714 6.2572 6.33714H6.76201C7.02089 6.33714 7.23076 6.54702 7.23076 6.80589C7.23076 7.06477 7.02089 7.27464 6.76201 7.27464ZM9.13701 11.0246H8.6322C8.37333 11.0246 8.16345 10.8148 8.16345 10.5559C8.16345 10.297 8.37333 10.0871 8.6322 10.0871H9.13701C9.39589 10.0871 9.60576 10.297 9.60576 10.5559C9.60576 10.8148 9.39589 11.0246 9.13701 11.0246ZM9.13701 9.14964H8.6322C8.37333 9.14964 8.16345 8.93977 8.16345 8.68089C8.16345 8.42202 8.37333 8.21214 8.6322 8.21214H9.13701C9.39589 8.21214 9.60576 8.42202 9.60576 8.68089C9.60576 8.93977 9.39589 9.14964 9.13701 9.14964ZM9.13701 7.27464H8.6322C8.37333 7.27464 8.16345 7.06477 8.16345 6.80589C8.16345 6.54702 8.37333 6.33714 8.6322 6.33714H9.13701C9.39589 6.33714 9.60576 6.54702 9.60576 6.80589C9.60576 7.06477 9.39589 7.27464 9.13701 7.27464ZM9.82933 4.47139H9.35336V4.94736C9.35336 5.20623 9.14348 5.41611 8.88461 5.41611C8.62573 5.41611 8.41586 5.20623 8.41586 4.94736V4.47139H7.93989C7.68102 4.47139 7.47114 4.26152 7.47114 4.00264C7.47114 3.74377 7.68102 3.53389 7.93989 3.53389H8.41586V3.05792C8.41586 2.79905 8.62573 2.58917 8.88461 2.58917C9.14348 2.58917 9.35336 2.79905 9.35336 3.05792V3.53389H9.82933C10.0882 3.53389 10.2981 3.74377 10.2981 4.00264C10.2981 4.26152 10.0882 4.47139 9.82933 4.47139ZM11.512 11.0246H11.0072C10.7483 11.0246 10.5385 10.8148 10.5385 10.5559C10.5385 10.297 10.7483 10.0871 11.0072 10.0871H11.512C11.7709 10.0871 11.9808 10.297 11.9808 10.5559C11.9808 10.8148 11.7709 11.0246 11.512 11.0246ZM11.512 9.14964H11.0072C10.7483 9.14964 10.5385 8.93977 10.5385 8.68089C10.5385 8.42202 10.7483 8.21214 11.0072 8.21214H11.512C11.7709 8.21214 11.9808 8.42202 11.9808 8.68089C11.9808 8.93977 11.7709 9.14964 11.512 9.14964ZM11.512 7.27464H11.0072C10.7483 7.27464 10.5385 7.06477 10.5385 6.80589C10.5385 6.54702 10.7483 6.33714 11.0072 6.33714H11.512C11.7709 6.33714 11.9808 6.54702 11.9808 6.80589C11.9808 7.06477 11.7709 7.27464 11.512 7.27464Z" fill="#C9C9C9"/>
</g>
<defs>
<clipPath id="clip0_3197_3768">
<rect width="16" height="16" fill="white" transform="translate(0.884521 0.714172)"/>
</clipPath>
</defs>
</svg>
