<svg width="41" height="41" viewBox="0 0 41 41" fill="none" xmlns="http://www.w3.org/2000/svg">
<circle opacity="0.08" cx="20.5183" cy="20.1601" r="20" fill="#393766"/>
<g clip-path="url(#clip0_0_1)">
<path d="M12.5183 27.5264C12.9631 26 13.4063 24.4736 13.8511 22.9472C13.8863 22.8256 13.9231 22.704 13.9551 22.5824C14.0063 22.3984 14.1023 22.2496 14.2495 22.1264C14.3871 22.0128 14.5087 21.8768 14.6351 21.7504C16.7199 19.6848 18.8047 17.6192 20.8879 15.552C20.9359 15.504 20.9775 15.4496 21.0111 15.408C21.2943 15.6928 21.5599 15.96 21.8559 16.2576C21.8239 16.28 21.7615 16.312 21.7135 16.36C19.5535 18.5152 17.3951 20.6704 15.2399 22.8304C15.1631 22.9088 15.0991 23.016 15.0687 23.1216C14.8095 23.9776 14.5631 24.8384 14.3071 25.6976C14.2751 25.8048 14.2911 25.872 14.3727 25.9456C14.5055 26.0656 14.6223 26.2032 14.7567 26.3216C14.8031 26.3616 14.8911 26.392 14.9471 26.3776C15.8079 26.1312 16.6671 25.88 17.5247 25.6208C17.5983 25.5984 17.6671 25.536 17.7247 25.4768C19.9151 23.2928 22.1023 21.1056 24.2895 18.92C24.3311 18.8784 24.3663 18.832 24.3903 18.8048C24.7007 19.1152 25.0015 19.416 25.3311 19.7456C25.3167 19.7552 25.2591 19.7792 25.2191 19.8192C23.0623 21.9552 20.9023 24.0864 18.7567 26.2336C18.4575 26.5344 18.1327 26.72 17.7311 26.8336C16.3071 27.2368 14.8895 27.6624 13.4687 28.08C13.3743 28.1072 13.2783 28.1328 13.1839 28.16H13.0559C12.9871 28.1296 12.9167 28.1024 12.8479 28.0704C12.6559 27.9808 12.5903 27.7984 12.5183 27.6208V27.5264ZM16.8207 24.8752C16.7791 24.6096 16.7343 24.3664 16.7055 24.1232C16.6911 24.008 16.6447 23.9616 16.5327 23.9408C16.2591 23.888 15.9887 23.8192 15.7359 23.7632C18.0047 21.4896 20.2735 19.2144 22.5279 16.9536C22.8879 17.3136 23.2639 17.688 23.6271 18.0496C21.3807 20.3024 19.1135 22.576 16.8207 24.8752ZM23.3551 13.1856C23.5599 12.9856 23.7647 12.7728 23.9839 12.5744C24.6127 12.008 25.4319 12.0208 26.0447 12.6192C26.7215 13.2784 27.3887 13.9456 28.0479 14.6224C28.6719 15.2608 28.6623 16.1152 28.0399 16.752C27.8527 16.944 27.6591 17.1312 27.4799 17.3072C26.1103 15.9392 24.7423 14.5728 23.3551 13.1856ZM21.6863 14.696C21.9967 14.4048 22.3151 14.1056 22.6175 13.8208C24.0511 15.2544 25.4767 16.6816 26.9151 18.12C26.6159 18.4 26.2943 18.7024 25.9839 18.9936L21.6863 14.696Z" fill="#393766"/>
</g>
<defs>
<clipPath id="clip0_0_1">
<rect width="16" height="16" fill="white" transform="translate(12.5183 12.1601)"/>
</clipPath>
</defs>
</svg>
