<svg width="41" height="41" viewBox="0 0 41 41" fill="none" xmlns="http://www.w3.org/2000/svg">
<circle opacity="0.08" cx="20.0349" cy="20.1599" r="20" fill="#393766"/>
<g clip-path="url(#clip0_0_1)">
<path d="M23.2351 18.861C23.4616 18.861 23.6453 18.6774 23.6453 18.4509V12.5309C23.6453 11.8525 23.0933 11.3005 22.4148 11.3005H21.4304V10.9724C21.4304 10.2486 20.8416 9.65985 20.1179 9.65985C19.3942 9.65985 18.8054 10.2486 18.8054 10.9724V11.3005H17.9031V10.9724C17.9031 10.2486 17.3143 9.65985 16.5906 9.65985C15.8669 9.65985 15.2781 10.2486 15.2781 10.9724V11.3005H14.3757V10.9724C14.3757 10.2486 13.787 9.65985 13.0632 9.65985C12.3395 9.65985 11.7507 10.2486 11.7507 10.9724V11.3005H10.7664C10.0879 11.3005 9.53589 11.8525 9.53589 12.5309V26.4794C9.53589 26.5881 9.57912 26.6925 9.65602 26.7694L13.4263 30.5397C13.5033 30.6166 13.6076 30.6599 13.7164 30.6599H22.4148C23.0933 30.6599 23.6453 30.1079 23.6453 29.4294V28.6501C23.6453 28.4236 23.4616 28.2399 23.2351 28.2399C23.0086 28.2399 22.825 28.4236 22.825 28.6501V29.4294C22.825 29.6555 22.641 29.8395 22.4148 29.8395H14.1265V27.2997C14.1265 26.6212 13.5745 26.0692 12.8961 26.0692H10.3562V15.32H22.825V18.4509C22.825 18.6774 23.0086 18.861 23.2351 18.861ZM12.8961 26.8895C13.1222 26.8895 13.3062 27.0735 13.3062 27.2997V29.2595L10.9362 26.8895H12.8961ZM19.6257 10.9724C19.6257 10.701 19.8465 10.4802 20.1179 10.4802C20.3893 10.4802 20.6101 10.701 20.6101 10.9724V11.3005H19.6257V10.9724ZM16.0984 10.9724C16.0984 10.701 16.3192 10.4802 16.5906 10.4802C16.862 10.4802 17.0828 10.701 17.0828 10.9724V11.3005H16.0984V10.9724ZM12.571 10.9724C12.571 10.701 12.7918 10.4802 13.0632 10.4802C13.3346 10.4802 13.5554 10.701 13.5554 10.9724V11.3005H12.571V10.9724ZM10.3562 14.4997V12.5309C10.3562 12.3048 10.5402 12.1208 10.7664 12.1208H13.5554V12.4489C13.5554 12.7203 13.3346 12.9411 13.0632 12.9411C12.8367 12.9411 12.6531 13.1247 12.6531 13.3513C12.6531 13.5778 12.8367 13.7614 13.0632 13.7614C13.787 13.7614 14.3757 13.1726 14.3757 12.4489V12.1208H17.0828V12.4489C17.0828 12.7203 16.862 12.9411 16.5906 12.9411C16.3641 12.9411 16.1804 13.1247 16.1804 13.3513C16.1804 13.5778 16.3641 13.7614 16.5906 13.7614C17.3143 13.7614 17.9031 13.1726 17.9031 12.4489V12.1208H20.6101V12.4489C20.6101 12.7203 20.3893 12.9411 20.1179 12.9411C19.8914 12.9411 19.7078 13.1247 19.7078 13.3513C19.7078 13.5778 19.8914 13.7614 20.1179 13.7614C20.8416 13.7614 21.4304 13.1726 21.4304 12.4489V12.1208H22.4148C22.641 12.1208 22.825 12.3048 22.825 12.5309V14.4997H10.3562Z" fill="#393766"/>
<path d="M23.5243 19.8752C23.4481 19.7985 23.3422 19.755 23.2344 19.755C23.1265 19.755 23.0207 19.7985 22.9444 19.8752C22.8681 19.9515 22.8242 20.0573 22.8242 20.1652C22.8242 20.273 22.8681 20.3785 22.9444 20.4552C23.0207 20.5314 23.1265 20.5753 23.2344 20.5753C23.3422 20.5753 23.4481 20.5314 23.5243 20.4552C23.6006 20.3789 23.6445 20.273 23.6445 20.1652C23.6445 20.0573 23.6006 19.9515 23.5243 19.8752Z" fill="#393766"/>
<path d="M20.6166 19.0934H12.5635C12.337 19.0934 12.1533 19.2771 12.1533 19.5036C12.1533 19.7301 12.337 19.9138 12.5635 19.9138H20.6166C20.8431 19.9138 21.0268 19.7301 21.0268 19.5036C21.0268 19.2771 20.8431 19.0934 20.6166 19.0934Z" fill="#393766"/>
<path d="M20.6166 21.3903H12.5635C12.337 21.3903 12.1533 21.5739 12.1533 21.8005C12.1533 22.027 12.337 22.2106 12.5635 22.2106H20.6166C20.8431 22.2106 21.0268 22.027 21.0268 21.8005C21.0268 21.5739 20.8431 21.3903 20.6166 21.3903Z" fill="#393766"/>
<path d="M20.6166 23.6872H12.5635C12.337 23.6872 12.1533 23.8708 12.1533 24.0974C12.1533 24.3239 12.337 24.5075 12.5635 24.5075H20.6166C20.8431 24.5075 21.0268 24.3239 21.0268 24.0974C21.0268 23.8708 20.8431 23.6872 20.6166 23.6872Z" fill="#393766"/>
<path d="M20.6162 16.7966H14.3611C14.1346 16.7966 13.9509 16.9802 13.9509 17.2067C13.9509 17.4333 14.1346 17.6169 14.3611 17.6169H20.6162C20.8427 17.6169 21.0263 17.4333 21.0263 17.2067C21.0263 16.9802 20.8427 16.7966 20.6162 16.7966Z" fill="#393766"/>
<path d="M12.8534 16.9167C12.7772 16.8405 12.6713 16.7966 12.5635 16.7966C12.4552 16.7966 12.3498 16.8405 12.2735 16.9167C12.1972 16.993 12.1533 17.0989 12.1533 17.2067C12.1533 17.3146 12.1972 17.4204 12.2735 17.4967C12.3498 17.573 12.4552 17.6169 12.5635 17.6169C12.6713 17.6169 12.7772 17.573 12.8534 17.4967C12.9297 17.4204 12.9736 17.3146 12.9736 17.2067C12.9736 17.0989 12.9297 16.993 12.8534 16.9167Z" fill="#393766"/>
<path d="M29.6737 15.005C29.2752 14.7749 28.811 14.7138 28.3665 14.8329C27.922 14.952 27.5505 15.2371 27.3205 15.6355L22.159 24.5754C22.1307 24.6244 22.1128 24.6788 22.1066 24.735L21.7433 27.9894C21.7252 28.1513 21.8047 28.3086 21.9458 28.3901C22.0095 28.4268 22.0802 28.445 22.1508 28.445C22.2366 28.445 22.3221 28.4182 22.3941 28.3651L25.0307 26.4233C25.0763 26.3897 25.1145 26.3471 25.1427 26.2981L30.3042 17.3582C30.7791 16.5356 30.4963 15.48 29.6737 15.005ZM22.6625 27.1487L22.8522 25.4493L24.0393 26.1347L22.6625 27.1487ZM24.6374 25.5327L23.0745 24.6304L27.2164 17.4563L28.7793 18.3587L24.6374 25.5327ZM29.5938 16.948L29.1895 17.6483L27.6266 16.7459L28.0309 16.0457C28.1514 15.837 28.346 15.6877 28.5788 15.6253C28.8116 15.5628 29.0547 15.5949 29.2635 15.7154C29.4722 15.8359 29.6215 16.0305 29.6839 16.2633C29.7463 16.4961 29.7143 16.7393 29.5938 16.948Z" fill="#393766"/>
</g>
<defs>
<clipPath id="clip0_0_1">
<rect width="21" height="21" fill="white" transform="translate(9.53491 9.65985)"/>
</clipPath>
</defs>
</svg>
