<svg width="17" height="17" viewBox="0 0 17 17" fill="none" xmlns="http://www.w3.org/2000/svg">
<g clip-path="url(#clip0_3204_3786)">
<path d="M6.09578 4.8183C6.20298 5.0375 6.31818 5.2295 6.36298 5.4583C6.48778 6.0935 6.77418 6.6647 7.20298 7.1367C7.47498 7.4359 7.45898 7.7431 7.36618 8.0519C7.28618 8.3191 7.31018 8.5143 7.48778 8.7191C7.72458 8.9943 7.96138 9.2679 8.28938 9.4423C8.66858 9.6455 9.19978 9.6103 9.62858 9.2759C9.97898 9.0023 10.2414 8.6519 10.4846 8.2839C10.5278 8.2199 10.5102 8.1639 10.4974 8.1031C10.4814 8.0279 10.467 7.9527 10.451 7.8791C10.3854 7.5767 10.475 7.3367 10.6814 7.0999C11.0942 6.6247 11.3694 6.0711 11.4974 5.4519C11.5438 5.2279 11.6622 5.0423 11.787 4.8439C11.7838 4.9207 11.787 4.9991 11.7758 5.0759C11.6574 5.8663 11.747 6.6471 11.8878 7.4215C11.947 7.7399 12.051 8.0535 12.179 8.3559C12.2542 8.5319 12.4334 8.5287 12.571 8.5847C13.0686 8.7831 13.5518 9.0071 14.0094 9.2887C14.4238 9.5431 14.6334 9.9303 14.7806 10.3671C15.011 11.0487 15.2126 11.7383 15.3502 12.4471C15.5006 13.2247 15.5598 14.0055 15.515 14.7959C15.4942 15.1415 15.2766 15.3479 14.987 15.4567C14.3006 15.7143 13.5934 15.9143 12.8734 16.0615C12.4494 16.1479 12.0238 16.2135 11.6014 16.2951C11.2814 16.3575 10.9678 16.3495 10.6494 16.3511C9.81098 16.3575 8.97098 16.3399 8.13258 16.3575C7.32618 16.3735 6.53418 16.2887 5.74058 16.1399C4.92298 15.9879 4.11658 15.8055 3.32938 15.5447C3.10698 15.4711 2.88778 15.3879 2.67178 15.2967C2.33738 15.1559 2.28458 14.8551 2.26058 14.5543C2.22378 14.0855 2.30858 13.6215 2.35818 13.1591C2.42538 12.5367 2.53258 11.9191 2.68618 11.3111C2.83018 10.7399 3.00458 10.1767 3.31818 9.6759C3.56938 9.2743 3.97578 9.0535 4.41258 8.8935C4.77578 8.7623 5.14058 8.6359 5.50378 8.5031C5.58698 8.4727 5.64618 8.4199 5.68458 8.3239C5.90218 7.7655 6.02698 7.1911 6.08138 6.5927C6.12938 6.0743 6.15178 5.5607 6.07498 5.0439C6.06698 4.9783 6.05258 4.9079 6.09578 4.8183ZM8.44618 14.0695C8.44618 14.2167 8.45258 14.3383 8.44458 14.4599C8.43658 14.5815 8.47498 14.6343 8.60458 14.6279C8.79658 14.6199 8.98858 14.6199 9.18058 14.6279C9.31178 14.6343 9.34538 14.5767 9.34218 14.4583C9.33578 14.2279 9.34698 13.9975 9.33738 13.7671C9.33258 13.6295 9.37258 13.5703 9.52138 13.5767C9.75178 13.5863 9.98218 13.5735 10.2126 13.5815C10.339 13.5863 10.3854 13.5351 10.3838 13.4135C10.3806 13.2215 10.3758 13.0295 10.3854 12.8391C10.3934 12.7031 10.3278 12.6775 10.2126 12.6791C9.99498 12.6839 9.77738 12.6807 9.55978 12.6839C9.40138 12.6871 9.32618 12.6263 9.33578 12.4551C9.34858 12.2327 9.33738 12.0071 9.34218 11.7831C9.34378 11.6775 9.30858 11.6343 9.19658 11.6375C8.99818 11.6439 8.79978 11.6423 8.60138 11.6375C8.48938 11.6359 8.43978 11.6727 8.44298 11.7927C8.44938 12.0231 8.43658 12.2535 8.44778 12.4839C8.45418 12.6311 8.38698 12.6775 8.25578 12.6775C8.08938 12.6775 7.92298 12.6791 7.75658 12.6807C7.39978 12.6855 7.39978 12.6871 7.40138 13.0503C7.40298 13.5799 7.40298 13.5767 7.92938 13.5815C8.09418 13.5831 8.30378 13.5095 8.40938 13.6167C8.51818 13.7207 8.42858 13.9319 8.44618 14.0695ZM6.76938 4.0919C6.55178 4.0919 6.33418 4.0871 6.11658 4.0935C5.97098 4.0983 5.91178 4.0439 5.90698 3.8935C5.89418 3.5223 5.86858 3.1479 5.91978 2.7815C6.04298 1.9095 6.50378 0.933496 7.65258 0.583096C8.16938 0.424696 8.68938 0.306296 9.22218 0.375096C10.2238 0.503096 11.1054 0.875896 11.595 1.8311C11.9102 2.4439 11.9086 3.1239 11.8814 3.7975C11.8798 3.8583 11.8894 3.9207 11.7742 3.8983C11.6846 3.8807 11.6702 3.9975 11.6558 4.0647C11.6334 4.1703 11.603 4.1863 11.5022 4.1335C11.0654 3.9047 10.779 3.5479 10.603 3.0983C10.555 2.9751 10.5342 2.9527 10.411 3.0391C9.61258 3.5959 8.72458 3.9079 7.75978 4.0359C7.43018 4.0807 7.10058 4.0951 6.76938 4.0919Z" fill="#C9C9C9"/>
</g>
<defs>
<clipPath id="clip0_3204_3786">
<rect width="16" height="16" fill="white" transform="translate(0.884521 0.355957)"/>
</clipPath>
</defs>
</svg>
