<svg width="33" height="33" viewBox="0 0 33 33" fill="none" xmlns="http://www.w3.org/2000/svg">
<g clip-path="url(#clip0_2381_14908)">
<path d="M21.5512 32.7142H1.55119C1.18319 32.7142 0.884521 32.4155 0.884521 32.0475V26.7142C0.884521 24.1408 2.97785 22.0475 5.55119 22.0475H17.5512C20.1245 22.0475 22.2179 24.1408 22.2179 26.7142V32.0475C22.2179 32.4155 21.9192 32.7142 21.5512 32.7142ZM2.21785 31.3808H20.8845V26.7142C20.8845 24.8755 19.3899 23.3808 17.5512 23.3808H5.55119C3.71252 23.3808 2.21785 24.8755 2.21785 26.7142V31.3808Z" fill="#FC5285"/>
<path d="M11.5513 19.3809C8.24327 19.3809 5.55127 16.6889 5.55127 13.3809C5.55127 10.0729 8.24327 7.38086 11.5513 7.38086C14.8593 7.38086 17.5513 10.0729 17.5513 13.3809C17.5513 16.6889 14.8593 19.3809 11.5513 19.3809ZM11.5513 8.71419C8.97794 8.71419 6.8846 10.8075 6.8846 13.3809C6.8846 15.9542 8.97794 18.0475 11.5513 18.0475C14.1246 18.0475 16.2179 15.9542 16.2179 13.3809C16.2179 10.8075 14.1246 8.71419 11.5513 8.71419Z" fill="#FC5285"/>
<path d="M16.0806 13.4915C14.4966 13.4915 13.3526 12.4155 12.7619 11.6901C9.7859 13.9808 6.2619 13.3968 6.1019 13.3715C5.74057 13.3075 5.49924 12.9635 5.5619 12.6008C5.62457 12.2395 5.9659 11.9901 6.33124 12.0568C6.36857 12.0635 9.84857 12.6248 12.4312 10.2261C12.5792 10.0875 12.7819 10.0261 12.9819 10.0555C13.1819 10.0848 13.3579 10.2048 13.4606 10.3795C13.5139 10.4701 14.7766 12.5901 16.7099 12.0715C17.0712 11.9728 17.4312 12.1861 17.5272 12.5408C17.6232 12.8968 17.4139 13.2621 17.0579 13.3581C16.7166 13.4501 16.3899 13.4915 16.0806 13.4915V13.4915Z" fill="#FC5285"/>
<path d="M26.8845 15.3808C23.5765 15.3808 20.8845 12.6888 20.8845 9.38084V2.71417C20.8845 1.61151 21.7819 0.714172 22.8845 0.714172H30.8845C31.9872 0.714172 32.8845 1.61151 32.8845 2.71417V9.38084C32.8845 12.6888 30.1925 15.3808 26.8845 15.3808ZM22.8845 2.04751C22.5179 2.04751 22.2179 2.34617 22.2179 2.71417V9.38084C22.2179 11.9542 24.3112 14.0475 26.8845 14.0475C29.4579 14.0475 31.5512 11.9542 31.5512 9.38084V2.71417C31.5512 2.34617 31.2512 2.04751 30.8845 2.04751H22.8845Z" fill="#FC5285"/>
<path d="M24.2179 28.7142H21.5512C21.1832 28.7142 20.8845 28.4155 20.8845 28.0475C20.8845 27.6795 21.1832 27.3808 21.5512 27.3808H24.2179C25.3205 27.3808 26.2179 26.4835 26.2179 25.3808V14.7142C26.2179 14.3462 26.5165 14.0475 26.8845 14.0475C27.2525 14.0475 27.5512 14.3462 27.5512 14.7142V25.3808C27.5512 27.2195 26.0565 28.7142 24.2179 28.7142Z" fill="#FC5285"/>
<path d="M26.8844 10.0475C26.5164 10.0475 26.2178 9.74884 26.2178 9.38084V5.38084C26.2178 5.01284 26.5164 4.71417 26.8844 4.71417C27.2524 4.71417 27.5511 5.01284 27.5511 5.38084V9.38084C27.5511 9.74884 27.2524 10.0475 26.8844 10.0475Z" fill="#FC5285"/>
<path d="M28.8844 8.04751H24.8844C24.5164 8.04751 24.2178 7.74884 24.2178 7.38084C24.2178 7.01284 24.5164 6.71417 24.8844 6.71417H28.8844C29.2524 6.71417 29.5511 7.01284 29.5511 7.38084C29.5511 7.74884 29.2524 8.04751 28.8844 8.04751Z" fill="#FC5285"/>
</g>
<defs>
<clipPath id="clip0_2381_14908">
<rect width="32" height="32" fill="white" transform="translate(0.884521 0.714172)"/>
</clipPath>
</defs>
</svg>
