<svg width="16" height="21" viewBox="0 0 16 21" fill="none" xmlns="http://www.w3.org/2000/svg">
<path d="M10.7688 0.555237H0.64487C0.36301 0.555237 0.134521 0.783725 0.134521 1.2271V19.7413C0.134521 19.8616 0.36301 20.0901 0.64487 20.0901H14.6242C14.906 20.0901 15.1345 19.8616 15.1345 19.7413V5.08245C15.1345 4.83966 15.1021 4.76152 15.0449 4.70396L10.9858 0.644888C10.9282 0.587679 10.8501 0.555237 10.7688 0.555237Z" fill="#E7E7E7"/>
<path d="M10.9485 0.607971V4.74134H15.0819L10.9485 0.607971Z" fill="#D1D1D1"/>
<path d="M4.6742 12.1799C4.5528 12.1799 4.43629 12.1405 4.33687 12.0662C3.97373 11.7937 3.9249 11.4906 3.94792 11.2841C4.01141 10.7162 4.71362 10.1218 6.03571 9.51619C6.56036 8.36642 7.05955 6.94979 7.35711 5.76619C7.00897 5.00852 6.67059 4.02549 6.91722 3.44886C7.00373 3.24689 7.11152 3.092 7.3128 3.02503C7.39234 2.99852 7.59327 2.96503 7.66722 2.96503C7.84304 2.96503 7.99757 3.19142 8.1071 3.33096C8.21001 3.46212 8.44338 3.74014 7.97699 5.70375C8.44722 6.67491 9.1135 7.66421 9.75187 8.34165C10.2092 8.25898 10.6027 8.21677 10.9233 8.21677C11.4695 8.21677 11.8006 8.3441 11.9356 8.60642C12.0472 8.8234 12.0015 9.077 11.7995 9.35991C11.6052 9.63165 11.3373 9.77537 11.0251 9.77537C10.6009 9.77537 10.107 9.50747 9.55617 8.97828C8.56652 9.18514 7.41083 9.55421 6.47664 9.9627C6.18501 10.5815 5.90559 11.08 5.64536 11.4456C5.2878 11.9462 4.97943 12.1799 4.6742 12.1799ZM5.6028 10.3918C4.85734 10.8107 4.5535 11.155 4.53152 11.349C4.52804 11.3811 4.51862 11.4655 4.68187 11.5904C4.73385 11.574 5.03734 11.4355 5.6028 10.3918ZM10.3599 8.84224C10.6442 9.06096 10.7136 9.17154 10.8995 9.17154C10.9812 9.17154 11.2138 9.16805 11.3216 9.0177C11.3736 8.94479 11.3938 8.89805 11.4019 8.87293C11.359 8.85026 11.3021 8.80421 10.992 8.80421C10.8158 8.80456 10.5943 8.81224 10.3599 8.84224ZM7.75408 6.54619C7.50466 7.40921 7.17536 8.34096 6.82129 9.18479C7.55036 8.90189 8.34292 8.65491 9.08734 8.48014C8.61641 7.93317 8.14583 7.25014 7.75408 6.54619ZM7.54234 3.59433C7.50815 3.60584 7.07838 4.20724 7.57583 4.71619C7.90687 3.9784 7.55734 3.58945 7.54234 3.59433Z" fill="#EC3536"/>
<path d="M14.6242 20.0901H0.64487C0.36301 20.0901 0.134521 19.8616 0.134521 19.5797V14.1599H15.1345V19.5797C15.1345 19.8616 14.906 20.0901 14.6242 20.0901Z" fill="#EC3536"/>
<path d="M3.93157 19.0436H3.35913V15.5287H4.37006C4.51936 15.5287 4.66727 15.5525 4.81343 15.6003C4.9596 15.6481 5.09076 15.7196 5.20692 15.8148C5.32308 15.91 5.41692 16.0255 5.48843 16.1605C5.55994 16.2955 5.59588 16.4472 5.59588 16.6161C5.59588 16.7943 5.56553 16.9555 5.50518 17.1003C5.44483 17.245 5.36041 17.3668 5.25227 17.4651C5.14413 17.5635 5.01367 17.6399 4.86122 17.694C4.70878 17.748 4.53994 17.7749 4.35576 17.7749H3.93122V19.0436H3.93157ZM3.93157 15.9627V17.3553H4.45622C4.52599 17.3553 4.59506 17.3434 4.66378 17.3193C4.73215 17.2956 4.79494 17.2565 4.85215 17.2025C4.90936 17.1484 4.95541 17.0731 4.99029 16.9761C5.02518 16.8791 5.04262 16.7591 5.04262 16.6161C5.04262 16.5589 5.0346 16.4926 5.0189 16.4183C5.00285 16.3436 4.97041 16.2721 4.92122 16.2037C4.87169 16.1354 4.80262 16.0782 4.71367 16.0321C4.62471 15.9861 4.50681 15.963 4.36064 15.963H3.93157V15.9627Z" fill="white"/>
<path d="M9.10635 17.1885C9.10635 17.4777 9.0753 17.725 9.01321 17.9301C8.95111 18.1353 8.87262 18.3069 8.77704 18.4454C8.68146 18.5839 8.57437 18.6927 8.45507 18.7722C8.33576 18.8518 8.22065 18.9111 8.10937 18.9512C7.99809 18.991 7.89623 19.0164 7.80414 19.0276C7.71204 19.038 7.64367 19.0436 7.59902 19.0436H6.26855V15.5287H7.32728C7.62309 15.5287 7.88297 15.5758 8.10693 15.6693C8.33088 15.7628 8.51716 15.8881 8.66507 16.0436C8.81297 16.1992 8.92321 16.3768 8.99646 16.5753C9.06972 16.7741 9.10635 16.9785 9.10635 17.1885ZM7.40855 18.624C7.79646 18.624 8.07623 18.5001 8.24786 18.2521C8.41948 18.0041 8.5053 17.6448 8.5053 17.1742C8.5053 17.028 8.48786 16.8833 8.45297 16.7403C8.41774 16.5972 8.35041 16.4678 8.2503 16.3517C8.15018 16.2355 8.01414 16.1417 7.84251 16.0701C7.67088 15.9986 7.44832 15.9627 7.17483 15.9627H6.841V18.624H7.40855Z" fill="white"/>
<path d="M10.5179 15.9627V17.0692H11.9868V17.4603H10.5179V19.0436H9.93604V15.5287H12.1344V15.9627H10.5179Z" fill="white"/>
</svg>
