<svg width="15" height="15" viewBox="0 0 15 15" fill="none" xmlns="http://www.w3.org/2000/svg">
<path d="M7.88772 0.855957C4.01892 0.855957 0.884521 3.99036 0.884521 7.85276C0.884521 11.7216 4.01892 14.856 7.88772 14.856C11.7501 14.856 14.8845 11.7216 14.8845 7.85276C14.8845 3.99036 11.7501 0.855957 7.88772 0.855957ZM8.68932 12.7136C8.34372 12.7712 8.01412 12.8 7.69572 12.8C7.36132 12.8 7.02052 12.7712 6.68612 12.7136C6.63492 12.3792 6.60612 12.0496 6.60612 11.72C6.60612 11.3904 6.63492 11.056 6.68612 10.7104C7.02052 10.6592 7.35652 10.6304 7.67972 10.6304C8.00932 10.6304 8.34372 10.6592 8.68932 10.7104C8.74692 11.0576 8.77092 11.392 8.77092 11.7088C8.77092 12.0448 8.74692 12.3792 8.68932 12.7136ZM10.5021 6.80156C10.3405 7.11356 10.1389 7.37276 9.90692 7.58716C9.67652 7.80156 9.43972 7.97436 9.19172 8.10076C8.94852 8.23356 8.74692 8.33116 8.59652 8.39516V9.63676C8.27972 9.68796 7.97252 9.71676 7.67812 9.71676C7.38372 9.71676 7.09572 9.68796 6.82372 9.63676V7.29276C7.03172 7.25756 7.25092 7.20636 7.47652 7.13756C7.70212 7.06876 7.91492 6.97596 8.10532 6.85436C8.29572 6.73916 8.45252 6.58876 8.57252 6.41596C8.69412 6.23676 8.75652 6.01756 8.75652 5.75196C8.75652 5.36476 8.61252 5.06556 8.33572 4.86236C8.05252 4.65436 7.67812 4.55676 7.21572 4.55676C7.02532 4.55676 6.85732 4.56316 6.70692 4.57436C6.55652 4.58556 6.41892 4.60956 6.29092 4.64316C6.16452 4.67196 6.03172 4.71196 5.89892 4.75356C5.77252 4.79356 5.63332 4.83996 5.48292 4.89756C5.35652 4.66076 5.25252 4.41276 5.17092 4.15836C5.09092 3.90396 5.03812 3.63836 5.02052 3.36796C5.25732 3.28796 5.47652 3.21756 5.67812 3.15996C5.87492 3.09596 6.07012 3.04956 6.26052 3.01596C6.45092 2.98076 6.64132 2.95196 6.83172 2.94076C7.02212 2.92956 7.23012 2.91836 7.44292 2.91836C8.53412 2.91836 9.35972 3.16636 9.91332 3.66236C10.4669 4.15836 10.7453 4.83356 10.7453 5.70076C10.7501 6.12636 10.6637 6.49116 10.5021 6.80156Z" fill="#C9C9C9"/>
</svg>
