<svg width="17" height="17" viewBox="0 0 17 17" fill="none" xmlns="http://www.w3.org/2000/svg">
<path d="M16.4139 1.85988H7.334L6.75765 1.05301C6.66934 0.929337 6.52672 0.855957 6.37472 0.855957H1.35511C1.09522 0.855957 0.884521 1.06666 0.884521 1.32655V16.3854C0.884521 16.6453 1.09522 16.856 1.35511 16.856H16.4139C16.6738 16.856 16.8845 16.6453 16.8845 16.3854C16.8845 15.0066 16.8845 3.93784 16.8845 2.33047C16.8845 2.07058 16.6738 1.85988 16.4139 1.85988ZM15.9433 15.9148H10.9087V14.9272C10.9087 13.2566 9.89014 11.8338 8.45513 11.2305C9.90115 9.8335 8.90353 7.38145 6.90058 7.38145C4.90112 7.38145 3.89713 9.83359 5.34771 11.2321C3.90651 11.84 2.89236 13.2673 2.89236 14.9272V15.9148H1.8257V1.79713H6.13252L8.50159 5.11381C8.5899 5.23748 8.73252 5.31086 8.88452 5.31086H15.9433V15.9148ZM15.9433 4.36968H9.12672L8.00628 2.80106H15.9433V4.36968Z" fill="#C9C9C9"/>
</svg>
