<svg width="15" height="14" viewBox="0 0 15 14" fill="none" xmlns="http://www.w3.org/2000/svg">
<path d="M12.0873 9.81695C11.9851 9.71475 11.9711 9.53835 12.0495 9.41655C12.6655 8.46875 13.0267 7.34035 13.0267 6.12795C13.0267 2.77915 10.3023 0.0561523 6.95632 0.0561523C3.60752 0.0561523 0.884521 2.77915 0.884521 6.12795C0.884521 9.47535 3.60752 12.1984 6.95632 12.1984C8.25972 12.1984 9.46652 11.7798 10.4577 11.077C10.5739 10.993 10.7489 11.0042 10.8511 11.105L13.0211 13.275C13.0351 13.289 13.0505 13.303 13.0659 13.3142C13.0911 13.3352 13.1961 13.4332 13.2969 13.5354L13.5545 13.7916C13.6567 13.8924 13.8219 13.8924 13.9227 13.7916L14.8075 12.9068C14.9097 12.8046 14.9097 12.6394 14.8089 12.5372L12.0873 9.81695ZM10.6285 8.95595C10.4283 9.21635 10.2029 9.45435 9.95372 9.66575C9.14452 10.3532 8.09872 10.7704 6.95632 10.7704C4.39572 10.7704 2.31252 8.68715 2.31252 6.12795C2.31252 3.56875 4.39572 1.48415 6.95632 1.48415C9.51552 1.48415 11.5987 3.56735 11.5987 6.12795C11.5987 7.19195 11.2333 8.17195 10.6285 8.95595Z" fill="#CACCCF"/>
</svg>
